<?xml version="1.0" encoding="UTF-8"?>
<svg width="77px" height="77px" viewBox="0 0 77 77" version="1.1" xmlns="http://www.w3.org/2000/svg" xmlns:xlink="http://www.w3.org/1999/xlink">
    <title>Fill 2 Copy</title>
    <g id="Page-1" stroke="none" stroke-width="1" fill="none" fill-rule="evenodd">
        <g id="osteosalix_logoxvinil" transform="translate(-558.000000, -419.000000)" fill="#8CD6AB">
            <g id="Group" transform="translate(140.868000, 419.843500)">
                <g id="Group-2" transform="translate(0.000000, -0.000000)">
                    <path d="M455.9596,0 C445.5031,0 436.5839,3.7018 429.1801,11.1059 C421.7981,18.5097 418.0961,27.4289 418.0961,37.8635 C418.0961,48.3191 421.7981,57.2383 429.1801,64.6422 C435.6031,71.047 443.1671,74.6805 451.8853,75.5306 C451.9307,74.2099 452.4259,73.0752 453.3735,72.1208 C454.3761,71.1256 455.582,70.6267 456.9885,70.6267 C458.3945,70.6267 459.5973,71.1256 460.5993,72.1208 C461.4849,73.0131 461.9778,74.0642 462.0753,75.276 C469.923,74.0861 476.803,70.5391 482.7172,64.6422 C490.121,57.2383 493.8231,48.3191 493.8231,37.8635 C493.8231,27.4289 490.121,18.5097 482.7172,11.1059 C475.3134,3.7018 466.3942,0 455.9596,0 Z M452.9409,68.1191 C451.11,68.1191 449.5402,67.4683 448.2349,66.1726 C446.9391,64.8726 446.2937,63.3028 446.2937,61.471 C446.2937,59.6401 446.9391,58.0748 448.2349,56.7703 C449.5402,55.4738 451.11,54.8238 452.9409,54.8238 C454.7718,54.8238 456.3377,55.4738 457.6425,56.7703 C458.9382,58.0748 459.5882,59.6401 459.5882,61.471 C459.5882,63.3028 458.9382,64.8726 457.6425,66.1726 C456.3377,67.4683 454.7718,68.1191 452.9409,68.1191 Z M455.2537,52.7012 C453.4226,52.7012 451.853,52.0512 450.5482,50.7555 C449.2519,49.4555 448.6062,47.8857 448.6062,46.054 C448.6062,44.2231 449.2519,42.6572 450.5482,41.3533 C451.853,40.0567 453.4226,39.4067 455.2537,39.4067 C457.0852,39.4067 458.6505,40.0567 459.9553,41.3533 C461.2507,42.6572 461.901,44.2231 461.901,46.054 C461.901,47.8857 461.2507,49.4555 459.9553,50.7555 C458.6505,52.0512 457.0852,52.7012 455.2537,52.7012 Z M461.4208,36.9128 C460.0103,36.9128 458.8016,36.4122 457.7967,35.4141 C456.7983,34.4129 456.3017,33.2034 456.3017,31.7937 C456.3017,30.384 456.7983,29.1782 457.7967,28.1733 C458.8016,27.1752 460.0103,26.6746 461.4208,26.6746 C462.8305,26.6746 464.036,27.1752 465.0412,28.1733 C466.0384,29.1782 466.539,30.384 466.539,31.7937 C466.539,33.2034 466.0384,34.4129 465.0412,35.4141 C464.036,36.4122 462.8305,36.9128 461.4208,36.9128 Z M465.082,24.3859 C463.6715,24.3859 462.4628,23.8856 461.4576,22.8881 C460.4604,21.8861 459.9626,20.6774 459.9626,19.2668 C459.9626,17.8572 460.4604,16.6516 461.4576,15.6464 C462.4628,14.6492 463.6715,14.1486 465.082,14.1486 C466.4923,14.1486 467.6973,14.6492 468.7021,15.6464 C469.7005,16.6516 470.2003,17.8572 470.2003,19.2668 C470.2003,20.6774 469.7005,21.8861 468.7021,22.8881 C467.6973,23.8856 466.4923,24.3859 465.082,24.3859 Z M466.6238,10.6906 C465.5356,10.6906 464.6024,10.3048 463.8277,9.5347 C463.0575,8.7614 462.674,7.8291 462.674,6.7408 C462.674,5.6529 463.0575,4.7228 463.8277,3.9481 C464.6024,3.1771 465.5356,2.7913 466.6238,2.7913 C467.7117,2.7913 468.6418,3.1771 469.4173,3.9481 C470.1866,4.7228 470.5733,5.6529 470.5733,6.7408 C470.5733,7.8291 470.1866,8.7614 469.4173,9.5347 C468.6418,10.3048 467.7117,10.6906 466.6238,10.6906 L466.6238,10.6906 Z" id="Fill-2-Copy"></path>
                </g>
            </g>
        </g>
    </g>
</svg>