<?xml version="1.0" encoding="UTF-8"?>
<svg width="151px" height="19px" viewBox="0 0 151 19" version="1.1" xmlns="http://www.w3.org/2000/svg" xmlns:xlink="http://www.w3.org/1999/xlink">
    <title>Group 3</title>
    <g id="Page-1" stroke="none" stroke-width="1" fill="none" fill-rule="evenodd">
        <g id="osteosalix_logoxvinil-copy" transform="translate(-249.000000, -586.000000)">
            <g id="Group-3" transform="translate(249.588967, 586.220619)">
                <path d="M9.2487457,1.59999724 C7.11936158,1.59999724 5.30324663,2.35387893 3.79565479,3.86147077 C2.2922658,5.36914838 1.53846988,7.18543487 1.53846988,9.31027306 C1.53846988,11.4393999 2.2922658,13.2556864 3.79565479,14.763364 C5.30324663,16.2664099 7.11936158,17.0202916 9.2487457,17.0202916 C11.3734981,17.0202916 13.1896131,16.2664099 14.6972907,14.763364 C16.2048825,13.2556864 16.9587642,11.4393999 16.9587642,9.31027306 C16.9587642,7.18543487 16.2048825,5.36914838 14.6972907,3.86147077 C13.1896131,2.35387893 11.3734981,1.59999724 9.2487457,1.59999724 Z M9.2487457,18.5587614 C6.70062101,18.5587614 4.51857267,17.6551212 2.71112073,15.8476693 C0.903811743,14.0401888 0,11.8581404 0,9.31027306 C0,6.76214837 0.903811743,4.58438865 2.71112073,2.77716543 C4.51857267,0.969713491 6.70062101,0.066073293 9.2487457,0.066073293 C11.7966417,0.066073293 13.974287,0.969713491 15.7818533,2.77716543 C17.589048,4.58438865 18.4927167,6.76214837 18.4927167,9.31027306 C18.4927167,11.8581404 17.589048,14.0401888 15.7818533,15.8476693 C13.974287,17.6551212 11.7966417,18.5587614 9.2487457,18.5587614 Z M32.0437173,3.9143923 C31.8364913,3.01075211 31.3207994,2.19517151 30.5052474,1.47219645 C29.4297766,0.524526453 28.0498998,0.0528357617 26.3702486,0.0528357617 C25.1844746,0.0528357617 24.1530336,0.30417731 23.2845601,0.815323278 C22.4250069,1.32240935 21.7990117,2.04103861 21.4110349,2.97103951 C21.093763,3.74687892 20.9965829,4.54038743 21.1157207,5.36045678 C21.2346869,6.17578006 21.5565333,6.84586217 22.0722824,7.3617828 C22.7775312,8.06703158 24.0912775,8.76799173 26.0088612,9.46440596 C27.9132644,10.1652803 29.2047958,10.8575775 29.8837124,11.5451572 C30.3156619,11.9947758 30.5889612,12.5239339 30.7124734,13.1365486 C30.8314396,13.7448746 30.7698551,14.3356745 30.5318082,14.9042879 C30.2453286,15.57437 29.7823295,16.0946079 29.1342051,16.4648013 C28.4818779,16.8264461 27.6929153,17.0070826 26.7715202,17.0070826 C25.3167642,17.0070826 24.1882003,16.5794789 23.3904032,15.7153226 C22.9759512,15.2790559 22.7114865,14.8205741 22.6011833,14.3488834 L21.1023402,14.697062 C21.3007316,15.6009595 21.8078463,16.4119655 22.6276869,17.1260489 C23.712221,18.0827821 25.0918405,18.5587614 26.7715202,18.5587614 C27.997064,18.5587614 29.0681604,18.2854908 29.9895555,17.7432094 C30.9020302,17.2097627 31.5546148,16.4605127 31.9511689,15.4994908 C32.3126993,14.6441404 32.4053335,13.7625437 32.2246111,12.850069 C32.0526376,11.9375656 31.6337827,11.1440571 30.9682465,10.473975 C30.1350254,9.62325633 28.6582258,8.80770433 26.5423079,8.03186492 C24.8362389,7.40586979 23.712221,6.81498413 23.1699682,6.26412557 C22.8746255,5.97747441 22.6982776,5.58092029 22.6408959,5.06059668 C22.5791398,4.54490478 22.6497304,4.04665325 22.8481218,3.56612801 C23.3904032,2.24803586 24.5629682,1.58687407 26.3702486,1.58687407 C27.8250047,1.58687407 28.9535686,2.01882358 29.7559688,2.87863411 C30.161529,3.31944676 30.4171306,3.77338258 30.5318082,4.24941906 L32.0437173,3.9143923 Z M33.9921789,0.066073293 L33.9921789,1.59999724 L40.115352,1.59999724 L40.115352,18.5587614 L41.6495332,18.5587614 L41.6495332,1.59999724 L47.926782,1.59999724 L47.926782,0.066073293 L33.9921789,0.066073293 Z M50.3954815,0.0131231681 L50.3954815,18.5587614 L61.8482332,18.5587614 L61.8482332,17.0202916 L51.9296627,17.0202916 L51.9296627,10.059523 L59.6662707,10.059523 L59.6662707,8.51239016 L51.9296627,8.51239016 L51.9296627,1.55167882 L61.8482332,1.55167882 L61.8482332,0.0131231681 L50.3954815,0.0131231681 Z M73.9139427,1.59999724 C71.7845586,1.59999724 69.9684151,2.35387893 68.4608232,3.86147077 C66.9574628,5.36914838 66.2036669,7.18543487 66.2036669,9.31027306 C66.2036669,11.4393999 66.9574628,13.2556864 68.4608232,14.763364 C69.9684151,16.2664099 71.7845586,17.0202916 73.9139427,17.0202916 C76.0386666,17.0202916 77.8548101,16.2664099 79.3624877,14.763364 C80.8700796,13.2556864 81.6238755,11.4393999 81.6238755,9.31027306 C81.6238755,7.18543487 80.8700796,5.36914838 79.3624877,3.86147077 C77.8548101,2.35387893 76.0386666,1.59999724 73.9139427,1.59999724 Z M73.9139427,18.5587614 C71.3657323,18.5587614 69.1837411,17.6551212 67.3762892,15.8476693 C65.5690088,14.0401888 64.665197,11.8581404 64.665197,9.31027306 C64.665197,6.76214837 65.5690088,4.58438865 67.3762892,2.77716543 C69.1837411,0.969713491 71.3657323,0.066073293 73.9139427,0.066073293 C76.4618101,0.066073293 78.6394841,0.969713491 80.446936,2.77716543 C82.254245,4.58438865 83.1578852,6.76214837 83.1578852,9.31027306 C83.1578852,11.8581404 82.254245,14.0401888 80.446936,15.8476693 C78.6394841,17.6551212 76.4618101,18.5587614 73.9139427,18.5587614 L73.9139427,18.5587614 Z" id="Fill-3-Copy" fill="#4E4E4D"></path>
                <path d="M96.7088857,3.9143923 C96.5016597,3.01075211 95.9859678,2.19517151 95.1704158,1.47219645 C94.0949451,0.524526453 92.7150968,0.0528357617 91.0354457,0.0528357617 C89.8495859,0.0528357617 88.8182307,0.30417731 87.9497285,0.815323278 C87.0901753,1.32240935 86.464123,2.04103861 86.0762319,2.97103951 C85.7588742,3.74687892 85.6617799,4.54038743 85.7809177,5.36045678 C85.899884,6.17578006 86.2217018,6.84586217 86.7373937,7.3617828 C87.4426425,8.06703158 88.7564746,8.76799173 90.6740582,9.46440596 C92.5784615,10.1652803 93.8699928,10.8575775 94.5488809,11.5451572 C94.980859,11.9947758 95.2541296,12.5239339 95.3776418,13.1365486 C95.4965509,13.7448746 95.4350235,14.3356745 95.1969195,14.9042879 C94.9105256,15.57437 94.4474122,16.0946079 93.7994022,16.4648013 C93.1470463,16.8264461 92.357998,17.0070826 91.4366887,17.0070826 C89.9819326,17.0070826 88.8533973,16.5794789 88.0555144,15.7153226 C87.6410339,15.2790559 87.3765978,14.8205741 87.2662945,14.3488834 L85.7675372,14.697062 C85.9659287,15.6009595 86.4730147,16.4119655 87.292884,17.1260489 C88.377418,18.0827821 89.7570375,18.5587614 91.4366887,18.5587614 C92.6621753,18.5587614 93.7333289,18.2854908 94.6546668,17.7432094 C95.5671415,17.2097627 96.2196975,16.4605127 96.6162516,15.4994908 C96.9778964,14.6441404 97.0705305,13.7625437 96.8897796,12.850069 C96.7177203,11.9375656 96.2989797,11.1440571 95.6334435,10.473975 C94.8002224,9.62325633 93.3234228,8.80770433 91.2074192,8.03186492 C89.5014359,7.40586979 88.377418,6.81498413 87.8351367,6.26412557 C87.5398225,5.97747441 87.3634746,5.58092029 87.3060071,5.06059668 C87.2443368,4.54490478 87.3149274,4.04665325 87.5132331,3.56612801 C88.0555144,2.24803586 89.2281367,1.58687407 91.0354457,1.58687407 C92.4902017,1.58687407 93.618737,2.01882358 94.4210801,2.87863411 C94.8267261,3.31944676 95.0823276,3.77338258 95.1969195,4.24941906 L96.7088857,3.9143923 Z M105.168412,0.066073293 L98.1415983,18.532172 L99.7947458,18.532172 L102.210524,12.1931958 L109.841146,12.1931958 L112.270133,18.5587614 L113.92328,18.5456383 L106.883258,0.066073293 L105.168412,0.066073293 Z M106.032511,2.15548751 L109.259409,10.6547259 L102.792346,10.6547259 L106.032511,2.15548751 Z M115.743884,0.066073293 L115.743884,18.5587614 L127.174649,18.5587614 L127.174649,17.0202916 L117.282411,17.0202916 L117.282411,0.066073293 L115.743884,0.066073293 Z M130.031011,18.5587614 L131.578401,18.5587614 L131.578401,0 L130.031011,0 L130.031011,18.5587614 Z M148.109476,0.066073293 L142.184723,7.97010883 L136.242272,0.066073293 L134.329035,0.066073293 L141.214838,9.26172592 L134.240946,18.5587614 L136.163019,18.5587614 L142.184723,10.5400483 L148.188758,18.5587614 L150.137134,18.5587614 L143.150119,9.24851698 L150.035666,0.066073293 L148.109476,0.066073293 Z" id="Fill-4-Copy" fill="#8CD6AB"></path>
            </g>
        </g>
    </g>
</svg>
