<svg width="284" height="37" xmlns="http://www.w3.org/2000/svg"><g fill="none" fill-rule="evenodd"><path d="M139.974 36c-4.8 0-8.908-1.702-12.312-5.106s-5.106-7.513-5.106-12.312c0-4.799 1.702-8.9 5.106-12.304s7.513-5.106 12.312-5.106c4.799 0 8.9 1.702 12.304 5.106s5.106 7.505 5.106 12.304-1.702 8.908-5.106 12.312S144.773 36 139.974 36zm0-31.939c-4.01 0-7.43 1.42-10.27 4.26-2.831 2.839-4.251 6.26-4.251 10.26 0 4.01 1.42 7.432 4.251 10.27 2.84 2.832 6.26 4.251 10.27 4.251 4.002 0 7.422-1.42 10.262-4.25 2.839-2.84 4.259-6.26 4.259-10.27 0-4.002-1.42-7.422-4.26-10.262-2.839-2.84-6.259-4.259-10.26-4.259zM95.681 1.072V36h21.57v-2.898H98.57V19.993h14.57v-2.914H98.57V3.97h18.68V1.072H95.68zm-30.893.1V4.06H76.32V36h2.89V4.06h11.82V1.17H64.788zm-3.67 7.248c-.39-1.702-1.361-3.238-2.897-4.6-2.025-1.785-4.625-2.673-7.788-2.673-2.233 0-4.175.473-5.811 1.436-1.619.955-2.798 2.309-3.529 4.06a8.45 8.45 0 00-.555 4.5c.224 1.536.83 2.798 1.8 3.77 1.33 1.328 3.803 2.648 7.415 3.959 3.587 1.32 6.019 2.624 7.298 3.919a5.922 5.922 0 011.56 2.997 5.648 5.648 0 01-.34 3.33c-.54 1.261-1.412 2.24-2.632 2.938-1.228.681-2.715 1.022-4.45 1.022-2.74 0-4.865-.805-6.367-2.433-.781-.822-1.28-1.685-1.487-2.574l-2.823.656c.374 1.703 1.329 3.23 2.873 4.575C45.427 35.103 48.025 36 51.189 36c2.308 0 4.325-.515 6.06-1.536 1.72-1.005 2.948-2.416 3.695-4.226a8.363 8.363 0 00.515-4.99c-.324-1.718-1.112-3.213-2.366-4.474-1.57-1.603-4.35-3.138-8.335-4.6-3.214-1.178-5.33-2.291-6.352-3.329-.556-.54-.888-1.287-.996-2.266a5.535 5.535 0 01.39-2.815c1.022-2.483 3.23-3.728 6.633-3.728 2.74 0 4.865.813 6.377 2.433.763.83 1.245 1.685 1.461 2.582l2.848-.631zM18.189 36c-4.8 0-8.909-1.702-12.313-5.106S.77 23.381.77 18.582c0-4.799 1.702-8.9 5.105-12.304C9.28 2.874 13.39 1.172 18.188 1.172c4.798 0 8.9 1.702 12.304 5.106s5.105 7.505 5.105 12.304-1.701 8.908-5.105 12.312C27.088 34.298 22.986 36 18.188 36zm0-31.939c-4.01 0-7.431 1.42-10.27 4.26-2.832 2.839-4.252 6.26-4.252 10.26 0 4.01 1.42 7.432 4.252 10.27 2.839 2.832 6.26 4.251 10.27 4.251 4.002 0 7.422-1.42 10.261-4.25 2.84-2.84 4.26-6.26 4.26-10.27 0-4.002-1.42-7.422-4.26-10.262-2.84-2.84-6.26-4.259-10.261-4.259z" fill="#8CD6AB"/><path d="M279.71 1.172l-11.16 14.886-11.19-14.886h-3.604l12.969 17.318L253.59 36h3.62l11.34-15.102L279.86 36h3.67l-13.16-17.534 12.968-17.294h-3.627zM245.662 36h2.914V1.047h-2.914V36zM218.754 1.172V36h21.528v-2.897h-18.63V1.172h-2.898zm-18.29 3.935l6.077 16.007h-12.179l6.102-16.007zm-1.627-3.935L185.603 35.95h3.114l4.55-11.938h14.37L212.212 36l3.113-.025-13.258-34.803h-3.23zM182.905 8.42c-.39-1.702-1.362-3.238-2.897-4.6-2.026-1.784-4.625-2.673-7.788-2.673-2.234 0-4.176.473-5.812 1.436-1.618.955-2.798 2.309-3.528 4.06a8.454 8.454 0 00-.556 4.5c.224 1.536.83 2.797 1.801 3.77 1.329 1.328 3.803 2.648 7.414 3.96 3.586 1.32 6.02 2.623 7.298 3.918a5.911 5.911 0 011.56 2.997 5.648 5.648 0 01-.34 3.33c-.539 1.262-1.411 2.241-2.632 2.938-1.228.682-2.714 1.022-4.45 1.022-2.74 0-4.865-.806-6.367-2.433-.78-.822-1.279-1.685-1.487-2.574l-2.822.656c.373 1.702 1.328 3.23 2.872 4.575 2.043 1.802 4.64 2.698 7.804 2.698 2.308 0 4.326-.515 6.061-1.536 1.72-1.005 2.948-2.416 3.694-4.226a8.362 8.362 0 00.516-4.99c-.324-1.718-1.113-3.212-2.367-4.475-1.569-1.601-4.35-3.138-8.335-4.599-3.213-1.179-5.33-2.292-6.351-3.329-.557-.54-.889-1.287-.997-2.267-.116-.97.017-1.91.39-2.814 1.022-2.483 3.23-3.728 6.634-3.728 2.74 0 4.865.814 6.376 2.433.764.83 1.245 1.685 1.462 2.582l2.847-.631z" fill="#8CD6AB"/></g></svg>