<?xml version="1.0" standalone="no"?>
<!DOCTYPE svg PUBLIC "-//W3C//DTD SVG 1.1//EN" "http://www.w3.org/Graphics/SVG/1.1/DTD/svg11.dtd" >
<svg xmlns="http://www.w3.org/2000/svg" xmlns:xlink="http://www.w3.org/1999/xlink" version="1.1">
<metadata></metadata>
<defs>
<font id="mobile_sansregular" horiz-adv-x="476" >
<font-face units-per-em="2048" ascent="1638" descent="-410" />
<missing-glyph horiz-adv-x="590" />
<glyph horiz-adv-x="0" />
<glyph unicode="&#xd;" horiz-adv-x="590" />
<glyph unicode=" "  horiz-adv-x="590" />
<glyph unicode="&#x09;" horiz-adv-x="590" />
<glyph unicode="&#xa0;" horiz-adv-x="590" />
<glyph unicode="!" horiz-adv-x="416" d="M150 0h119v174h-119v-174zM150 404h119v1033h-119v-1033z" />
<glyph unicode="&#x22;" horiz-adv-x="553" d="M90 993v447h120v-447h-120zM90 993v447h120v-447h-120zM343 993v447h120v-447h-120z" />
<glyph unicode="#" horiz-adv-x="1186" d="M20 467h207l-145 -436l94 -31l154 467h355l-144 -436l93 -31l155 467h372v98h-339l100 303h239v98h-206l144 436l-93 31l-155 -467h-355l145 436l-94 31l-155 -467h-372v-98h340l-101 -303h-239v-98zM363 565l100 303h355l-100 -303h-355z" />
<glyph unicode="$" horiz-adv-x="1076" d="M120 292q21 -94 102 -173q106 -104 271 -122v-230h120v229q260 24 348 234q41 99 21 205q-21 106 -98 184q-90 93 -271 163v517q122 -22 191 -110q36 -45 46 -88l117 27q-21 90 -98 168q-101 102 -256 125v232h-120v-227q-262 -16 -349 -226q-37 -90 -23 -185t74 -154 q82 -82 298 -162v-582q-133 19 -207 109q-39 47 -50 93zM229 1039q-7 60 16 116q57 138 238 151v-479q-153 58 -213 118q-34 34 -41 94zM603 116v537q122 -52 186 -117q51 -52 65 -123t-14 -137q-58 -139 -237 -160z" />
<glyph unicode="%" horiz-adv-x="1680" d="M120 89l1341 1338l85 -85l-1341 -1338zM120 1096q0 138 98 236t236 98t236 -98t98 -236t-98 -236t-236 -98t-236 98t-98 236zM240 1096q0 -89 63 -152q62 -63 151 -63t152 63t63 152t-63 152q-63 62 -152 62t-151 -62q-63 -63 -63 -152zM878 334q0 138 98 236t236 98 t236 -98t98 -236t-98 -236t-236 -98t-236 98t-98 236zM997 334q0 -89 63 -151q63 -63 152 -63t151 63q63 62 63 151t-63 152q-62 63 -151 63t-152 -63t-63 -152z" />
<glyph unicode="&#x26;" horiz-adv-x="1293" d="M90 477q0 -197 140 -337t337 -140q148 0 269 84q119 81 173 215l149 -150l83 84l-209 209v281h-118v-163l-267 266l-36 36q104 17 173 96q70 81 70 188q0 119 -84 203q-85 84 -203 84q-119 0 -203 -84q-85 -84 -85 -203q0 -140 112 -227q-134 -53 -217 -172 q-84 -122 -84 -270zM208 477q0 125 78 223q77 96 196 125l432 -432v-5q-30 -118 -126 -193q-97 -77 -221 -77q-149 0 -254 105t-105 254zM397 1146q0 70 50 120q49 49 120 49q70 0 120 -49q49 -50 49 -120t-49 -120q-50 -50 -120 -50q-71 0 -120 50q-50 50 -50 120z" />
<glyph unicode="'" horiz-adv-x="313" d="M90 993v447h120v-447h-120z" />
<glyph unicode="(" horiz-adv-x="629" d="M119 465q0 388 178 715q92 169 189 263l79 -82q-83 -81 -167 -237q-165 -304 -165 -659q0 -314 164 -590q85 -142 166 -215l-76 -85q-97 87 -189 242q-179 300 -179 648z" />
<glyph unicode=")" horiz-adv-x="615" d="M100 1354l78 81q96 -93 187 -260q176 -323 176 -707q0 -344 -177 -641q-91 -153 -187 -239l-75 84q80 72 164 213q162 272 162 583q0 353 -163 653q-83 154 -165 233z" />
<glyph unicode="*" horiz-adv-x="727" d="M73 1198l185 -67l-127 -151l92 -77l136 162l135 -162l92 77l-126 151l184 67l-41 113l-184 -67v196h-120v-196l-185 67z" />
<glyph unicode="+" horiz-adv-x="947" d="M120 453h287v-288h120v288h287v119h-287v287h-120v-287h-287v-119z" />
<glyph unicode="," d="M61 -244h69l180 336h-123z" />
<glyph unicode="-" d="M68 429v118h343v-118h-343z" />
<glyph unicode="." horiz-adv-x="481" d="M180 0h120v120h-120v-120z" />
<glyph unicode="/" horiz-adv-x="560" d="M0 31l93 -31l465 1401l-93 31z" />
<glyph unicode="0" horiz-adv-x="1581" d="M80 716q0 297 210 507t507 210q296 0 506 -210t210 -507q0 -296 -210 -506t-506 -210q-297 0 -507 210t-210 506zM199 716q0 -247 175 -422t423 -175q247 0 422 175t175 422q0 248 -175 423t-422 175q-248 0 -423 -175t-175 -423z" />
<glyph unicode="1" horiz-adv-x="907" d="M228 1315h241v-1315h119v1434h-360v-119z" />
<glyph unicode="2" horiz-adv-x="1001" d="M80 1183q84 248 406 248q133 0 233 -53q101 -54 152 -152q48 -92 41 -196q-8 -105 -69 -194l-3 -4l-597 -712h665v-120h-823l1 119l660 787q41 61 46 132q6 71 -27 133q-74 141 -279 141q-240 0 -295 -172z" />
<glyph unicode="3" horiz-adv-x="1001" d="M90 315l116 31q24 -98 103 -161q80 -65 183 -65q121 0 208 86q86 87 86 208t-86 207q-87 86 -208 86v121q100 0 171 71t71 171t-71 171t-171 71q-83 0 -148 -51q-64 -50 -86 -128l-111 47q35 111 129 181q96 71 216 71q150 0 256 -106t106 -256q0 -189 -156 -298 q95 -54 151 -148q57 -97 57 -210q0 -171 -121 -293q-122 -121 -293 -121q-144 0 -257 90q-111 88 -145 225z" />
<glyph unicode="4" horiz-adv-x="1100" d="M0 395h676v-395h120v395h178v119h-178v918h-134l-662 -919v-118zM148 514l528 733v-733h-528z" />
<glyph unicode="5" horiz-adv-x="1046" d="M80 871h1l84 -85q115 115 276 115q162 0 276 -115q115 -114 115 -276q0 -161 -115 -276q-114 -114 -276 -114q-161 0 -276 114l-84 -85q149 -149 360 -149q212 0 361 149q150 150 150 361q0 212 -150 361q-149 149 -361 149q-119 0 -225 -52l52 344h566v120h-670z" />
<glyph unicode="6" horiz-adv-x="1175" d="M80 505q0 -209 148 -357t357 -148q210 0 358 148t148 357q0 210 -148 358t-358 148q-64 0 -126 -16l308 439h-147l-431 -616q-20 -24 -35 -49v-1q-74 -121 -74 -263zM200 505q0 109 58 203l27 38q116 145 300 145q160 0 273 -113t113 -273q0 -159 -113 -272t-273 -113 q-159 0 -272 113t-113 272z" />
<glyph unicode="7" horiz-adv-x="1036" d="M100 1311h703l-696 -1311h135l696 1311v119h-838v-119z" />
<glyph unicode="8" horiz-adv-x="1120" d="M100 463q0 -191 136 -327t327 -136q192 0 328 136t136 327q0 137 -74 251q-72 112 -192 168q112 93 112 238q0 128 -91 219t-219 91t-218 -91q-91 -91 -91 -219q0 -145 112 -238q-120 -56 -192 -168q-74 -114 -74 -251zM219 463q0 143 101 243q101 101 243 101 q143 0 243 -101q101 -100 101 -243q0 -142 -101 -243q-100 -101 -243 -101q-142 0 -243 101t-101 243zM373 1120q0 79 56 135q56 55 134 55q79 0 135 -55q55 -56 55 -135q0 -78 -55 -134q-56 -56 -135 -56q-78 0 -134 56t-56 134z" />
<glyph unicode="9" horiz-adv-x="1199" d="M100 928q0 -209 148 -357t357 -148q65 0 127 16l-308 -439h147l431 616q20 24 35 49v1q74 121 74 262q0 209 -148 358q-148 148 -358 148q-209 0 -357 -148q-148 -149 -148 -358zM220 928q0 160 113 273t272 113q160 0 273 -113t113 -273q0 -109 -58 -202l-27 -38 q-116 -145 -301 -145q-159 0 -272 113t-113 272z" />
<glyph unicode=":" d="M180 0h120v120h-120v-120zM180 911h120v120h-120v-120z" />
<glyph unicode=";" d="M70 -209h67l175 326h-120zM192 904v120h120v-120h-120z" />
<glyph unicode="&#x3c;" horiz-adv-x="798" d="M120 454l481 -454l82 87l-439 415l440 439l-84 85l-480 -479v-93z" />
<glyph unicode="=" horiz-adv-x="957" d="M120 186h694v120h-694v-120zM120 710h694v119h-694v-119z" />
<glyph unicode="&#x3e;" horiz-adv-x="803" d="M120 85l84 -85l480 479v93l-481 454l-82 -87l439 -415z" />
<glyph unicode="?" horiz-adv-x="971" d="M100 1176q46 107 125 172q97 79 230 79q250 0 355 -111q92 -97 82 -286q-4 -81 -62 -163q-34 -49 -123 -138q-87 -87 -118 -132q-53 -74 -53 -145v-165h-119v165q0 103 67 202q39 59 139 159q146 146 151 223q7 139 -50 198q-70 74 -269 74q-170 0 -245 -176zM418 0v119 h118v-119h-118z" />
<glyph unicode="@" horiz-adv-x="1734" d="M72 494q0 -332 235 -568q236 -235 568 -235v119q-283 0 -484 200q-200 201 -200 484t200 484q201 200 484 200t484 -200q200 -201 200 -484q0 -251 -142 -417q-87 -103 -144 -122q-5 16 -5 45v503v20v1v53h-1q-8 235 -84 333q-88 111 -306 111q-200 0 -332 -114l77 -90 q102 86 255 86q154 0 208 -62q56 -63 63 -254q-37 2 -74 2q-286 0 -439 -88q-153 -87 -153 -252q0 -112 81 -181q80 -69 211 -69q187 0 329 130q25 22 46 48v-177q0 -130 79 -158q111 -41 280 158q170 200 170 494q0 332 -235 568q-236 235 -568 235t-568 -235 q-235 -236 -235 -568zM601 249q0 128 170 183q119 38 303 38q36 0 72 -1q-16 -156 -123 -252q-108 -99 -249 -99q-72 0 -118 29q-55 35 -55 102z" />
<glyph unicode="A" horiz-adv-x="1224" d="M0 2h128l187 491h591l188 -493l128 1l-545 1431h-133zM360 612l251 658l250 -658h-501z" />
<glyph unicode="B" horiz-adv-x="1145" d="M150 1432l1 -1432h419q273 0 391 117q103 102 103 283q0 291 -190 383q19 13 35 28q87 87 87 248q0 178 -95 272q-102 101 -331 101h-420zM269 119v598h301q207 -4 284 -61q91 -67 91 -256q0 -132 -67 -198q-84 -83 -308 -83h-301zM269 836v477h301q181 0 248 -66 q60 -59 60 -188q0 -111 -53 -163q-61 -60 -255 -60h-301z" />
<glyph unicode="C" horiz-adv-x="1477" d="M100 716q0 -296 210 -506t506 -210q265 0 466 173q45 39 84 85l-85 85q-37 -46 -84 -85q-166 -138 -381 -138q-247 0 -422 175q-174 174 -174 421t174 421q175 175 422 175q209 0 372 -131q47 -37 86 -84l85 85q-39 46 -86 84q-199 166 -457 166q-296 0 -506 -210 t-210 -506z" />
<glyph unicode="D" horiz-adv-x="1348" d="M160 0v1432h419q173 0 348 -93q343 -181 343 -623t-343 -623q-175 -93 -348 -93h-419zM279 119h300q152 1 295 79q277 150 277 518t-277 518q-144 78 -295 79h-300v-1194z" />
<glyph unicode="E" horiz-adv-x="1155" d="M150 0h887v119h-768v539h599v120h-599v539h768v119h-887v-1436z" />
<glyph unicode="F" horiz-adv-x="1140" d="M150 0h119v657h603v119h-603v539h768v120h-887v-1435z" />
<glyph unicode="G" horiz-adv-x="1457" d="M110 716q0 -296 210 -506t506 -210q240 0 433 146v-146h119v658h-369v-120h250v-232q-26 -26 -52 -48q-166 -138 -381 -138q-247 0 -422 175q-174 174 -174 421t174 421q175 175 422 175q209 0 372 -131q47 -37 86 -84l85 85q-39 46 -86 84q-199 166 -457 166 q-296 0 -506 -210t-210 -506z" />
<glyph unicode="H" horiz-adv-x="1353" d="M160 0h120v655h831v-655h120v1432h-120v-657h-831v657h-120v-1432z" />
<glyph unicode="I" horiz-adv-x="456" d="M160 0h120v1437h-120v-1437z" />
<glyph unicode="J" horiz-adv-x="1175" d="M70 489h119q0 -213 110 -306q77 -64 196 -64q210 0 317 112q100 103 100 244v16v2v939h119v-938v-12q0 -53 -16 -116q-32 -130 -117 -218q-142 -148 -403 -148q-144 0 -250 74q-175 123 -175 415z" />
<glyph unicode="K" horiz-adv-x="1061" d="M134 4h119v608l622 -612h171l-725 712l722 722h-169l-621 -621v623h-119v-1432z" />
<glyph unicode="L" horiz-adv-x="1085" d="M139 0h885v119h-766v1313h-119v-1432z" />
<glyph unicode="M" horiz-adv-x="1561" d="M124 0h119l125 1198l347 -808h131l347 809l124 -1199h119l-148 1432h-127l-381 -890l-381 890h-127z" />
<glyph unicode="N" horiz-adv-x="1328" d="M140 0h119v1226l767 -1226h130v1434h-120v-1225l-766 1225h-130v-1434z" />
<glyph unicode="O" horiz-adv-x="1621" d="M100 716q0 296 210 506t506 210t506 -210t210 -506t-210 -506t-506 -210t-506 210t-210 506zM219 716q0 -247 175 -422t422 -175t422 175t175 422t-175 422t-422 175t-422 -175t-175 -422z" />
<glyph unicode="P" horiz-adv-x="1095" d="M150 0v1432h315q148 0 229 -15q142 -26 221 -105q95 -95 95 -259q0 -206 -141 -319q-142 -113 -400 -113h-200v-621h-119zM269 741h200q178 0 283 59q139 78 139 253q0 115 -60 175q-56 56 -173 74q-67 11 -193 11h-196v-572z" />
<glyph unicode="Q" horiz-adv-x="1631" d="M100 719q0 -298 211 -508q210 -211 508 -211q267 0 469 176l169 -169l85 85l-170 169q165 199 165 458q0 297 -211 507q-210 211 -507 211q-298 0 -508 -211q-211 -210 -211 -507zM220 719q0 247 175 423q176 175 424 175q247 0 423 -175q175 -176 175 -423 q0 -209 -130 -373l-216 216l-85 -84l218 -217q-168 -141 -385 -141q-248 0 -424 175q-175 176 -175 424z" />
<glyph unicode="R" horiz-adv-x="1071" d="M160 0h119v621h200q79 0 148 11l288 -632h132l-303 662q276 97 276 391q0 164 -95 259q-79 79 -221 105q-81 15 -229 15h-315v-1432zM279 741v572h196q281 0 366 -85q60 -60 60 -175q0 -175 -139 -253q-105 -59 -283 -59h-200z" />
<glyph unicode="S" horiz-adv-x="1071" d="M113 299q23 -105 118 -188q126 -111 321 -111q142 0 249 63q106 62 152 174q28 66 28 135q0 35 -7 70q-20 106 -97 184q-97 99 -343 189q-198 73 -261 137q-34 33 -41 93q-2 14 -2 28q0 45 18 88q63 153 273 153q169 0 262 -100q47 -51 60 -106l117 26q-24 105 -119 189 q-125 110 -320 110q-138 0 -239 -59q-100 -59 -145 -167q-27 -65 -27 -133q0 -26 4 -52q14 -95 74 -155q82 -82 305 -163q221 -81 300 -161q50 -52 64 -123q5 -24 5 -47q0 -46 -19 -90q-33 -78 -108 -121q-76 -42 -183 -42q-169 0 -262 100q-48 51 -61 106z" />
<glyph unicode="T" horiz-adv-x="1160" d="M40 1313h474v-1313h119v1313h486v119h-1079v-119z" />
<glyph unicode="U" horiz-adv-x="1373" d="M150 494v938h119v-941v-6q0 -36 12 -85q24 -103 89 -170q107 -111 317 -111t317 112q100 103 100 244v16v941h119v-938v-12q0 -53 -16 -116q-32 -130 -117 -218q-142 -148 -403 -148t-404 148q-133 138 -133 332v14z" />
<glyph unicode="V" horiz-adv-x="1199" d="M0 1432l534 -1432h127l533 1432l-127 1l-470 -1262l-470 1261h-127z" />
<glyph unicode="W" horiz-adv-x="1353" d="M20 1432l148 -1432h127l381 890l381 -890h127l148 1432h-119l-124 -1198l-347 808h-132l-346 -809l-125 1199h-119z" />
<glyph unicode="X" horiz-adv-x="1279" d="M30 0h149l466 621l465 -621h151l-541 721l533 711h-149l-459 -612l-460 612h-148l533 -712z" />
<glyph unicode="Y" horiz-adv-x="1219" d="M0 1432l548 -731v-701h119v702l548 730h-149l-458 -611l-459 611h-149z" />
<glyph unicode="Z" horiz-adv-x="1135" d="M40 0h903v119h-761l800 1206v109h-911v-119h761l-792 -1194v-121z" />
<glyph unicode="[" horiz-adv-x="555" d="M120 -193h396v113h-283v1399h283v113h-396v-1625z" />
<glyph unicode="\" horiz-adv-x="560" d="M0 1401l465 -1401l93 31l-465 1401z" />
<glyph unicode="]" horiz-adv-x="570" d="M30 -84v-114h397v1630h-397v-113h284v-1403h-284z" />
<glyph unicode="^" horiz-adv-x="1190" d="M42 1037l127 -170l408 341l406 -341l127 170l-523 439l-8 11l-2 -2l-4 2l-6 -11z" />
<glyph unicode="_" horiz-adv-x="962" d="M-30 -317v-85h1021v85h-1021z" />
<glyph unicode="`" horiz-adv-x="669" d="M101 1365l313 -245l74 93l-313 245z" />
<glyph unicode="a" horiz-adv-x="957" d="M94 251q0 -112 81 -182q80 -69 212 -69q187 0 330 130q25 22 46 48v-177h119v505v20v54h-1q-7 236 -84 334q-88 112 -307 112q-125 0 -239 -56q-59 -29 -94 -59l78 -90q25 22 70 43q88 43 185 43q155 0 209 -62q56 -63 63 -255q-37 2 -74 2q-287 0 -441 -88 q-153 -88 -153 -253zM213 251q0 128 171 184q119 38 304 38q36 0 72 -2q-16 -156 -123 -253q-109 -99 -250 -99q-72 0 -119 30q-55 35 -55 102z" />
<glyph unicode="b" horiz-adv-x="1224" d="M130 5h119v181q155 -186 395 -186q213 0 364 151q150 151 150 363q0 213 -150 364q-151 150 -364 150q-240 0 -395 -185v590h-119v-1428zM249 514q0 164 116 280q116 115 279 115q164 0 280 -115q115 -116 115 -280q0 -163 -115 -279q-116 -116 -280 -116 q-163 0 -279 116t-116 279z" />
<glyph unicode="c" horiz-adv-x="1011" d="M80 512q0 -212 150 -362t362 -150q178 0 317 111q46 36 84 83l-84 85q-36 -48 -84 -84q-104 -77 -233 -77q-163 0 -278 116q-116 115 -116 278t116 278q115 115 278 115q129 0 233 -76q48 -36 84 -84l84 84q-37 47 -84 84q-139 111 -317 111q-212 0 -362 -150t-150 -362z " />
<glyph unicode="d" horiz-adv-x="1239" d="M70 514q0 -212 151 -363t363 -151q241 0 395 186v-181h119v1428h-119v-590q-154 185 -395 185q-212 0 -363 -150q-151 -151 -151 -364zM189 514q0 164 116 280q116 115 279 115q164 0 280 -115q115 -116 115 -280q0 -163 -115 -279q-116 -116 -280 -116q-163 0 -279 116 t-116 279z" />
<glyph unicode="e" horiz-adv-x="1185" d="M80 513q0 -212 150 -363q151 -150 363 -150q115 0 218 49q100 47 172 131l-99 69q-117 -129 -291 -129q-150 0 -261 99t-129 246h901q2 24 2 48q0 38 -5 71q-26 188 -170 315q-145 127 -338 127q-212 0 -363 -150q-150 -151 -150 -363zM206 584q26 139 134 230 q110 92 253 92t253 -92q108 -91 134 -230h-774z" />
<glyph unicode="f" horiz-adv-x="461" d="M20 910h123v-910h120v910h193v120h-190q16 137 88 211q69 71 189 71v120q-171 0 -275 -107q-106 -108 -123 -295h-125v-120z" />
<glyph unicode="g" horiz-adv-x="1235" d="M80 515q0 -210 149 -359t359 -149q237 0 390 183v-102q0 -161 -115 -276q-114 -114 -275 -114q-174 0 -291 130l-117 -43q71 -95 176 -149q109 -56 232 -56q210 0 359 149t149 359v935h-118v-183q-153 183 -390 183q-210 0 -359 -149t-149 -359zM198 515q0 162 114 276 q115 114 276 114t275 -114q115 -114 115 -276q0 -161 -115 -275q-114 -115 -275 -115t-276 115q-114 114 -114 275z" />
<glyph unicode="h" horiz-adv-x="1041" d="M140 0h119v744q26 55 71 96q75 69 179 69q169 0 222 -77q52 -77 52 -326v-506h120v506q0 281 -72 391q-86 131 -322 131q-144 0 -250 -91v496h-119v-1433z" />
<glyph unicode="i" horiz-adv-x="406" d="M144 1316h121v121h-121v-121zM146 0h119v1031h-119v-1031z" />
<glyph unicode="j" horiz-adv-x="397" d="M-218 -297v-119q203 10 342 158q141 147 141 351v939h-118v-939q0 -155 -106 -268q-105 -111 -259 -122zM146 1313v119h119v-119h-119z" />
<glyph unicode="k" horiz-adv-x="1016" d="M150 0h120v435l545 -428l195 -1l-738 579l735 444h-231l-506 -306v711h-120v-1434z" />
<glyph unicode="l" horiz-adv-x="401" d="M140 0h120v1440h-120v-1440z" />
<glyph unicode="m" horiz-adv-x="1650" d="M140 0h119v742q26 55 70 96q76 69 179 69q88 0 138 -16q54 -18 83 -61q53 -77 53 -325v-505h119v505q0 146 -16 236q24 54 69 95q76 71 180 71q88 0 138 -16q54 -18 84 -61q52 -77 52 -325v-505h119v505q0 280 -72 390q-85 131 -321 131q-182 0 -298 -142 q-84 142 -328 142q-144 0 -249 -91v91h-119v-1026z" />
<glyph unicode="n" horiz-adv-x="1041" d="M140 0h119v742q26 55 70 96q76 69 179 69q88 0 138 -16q54 -18 83 -61q53 -77 53 -325v-505h119v505q0 280 -72 390q-85 131 -321 131q-144 0 -249 -91v91h-119v-1026z" />
<glyph unicode="o" horiz-adv-x="1150" d="M60 513q0 212 150 363q151 150 363 150t363 -150q150 -151 150 -363t-150 -363q-151 -150 -363 -150t-363 150q-150 151 -150 363zM179 513q0 -163 116 -278q115 -116 278 -116t278 116q116 115 116 278t-116 278q-115 116 -278 116t-278 -116q-116 -115 -116 -278z" />
<glyph unicode="p" horiz-adv-x="1220" d="M140 -420h118v610q153 -184 391 -184q211 0 360 150q150 149 150 360q0 210 -150 360q-149 149 -360 149q-238 0 -391 -183v184h-118v-1446zM258 516q0 162 115 276q115 115 276 115q162 0 277 -115q115 -114 115 -276t-115 -277q-115 -114 -277 -114q-161 0 -276 114 q-115 115 -115 277z" />
<glyph unicode="q" horiz-adv-x="1219" d="M60 518q0 -209 149 -358q148 -149 358 -149q237 0 389 183v-607h118v1439h-118v-183q-152 182 -389 182q-210 0 -358 -148q-149 -149 -149 -359zM178 518q0 161 114 275t275 114t275 -114t114 -275t-114 -275t-275 -114t-275 114t-114 275z" />
<glyph unicode="r" horiz-adv-x="669" d="M140 0h119v529q0 173 55 247q95 130 382 130v119q-293 0 -437 -133v134h-119v-1026z" />
<glyph unicode="s" horiz-adv-x="763" d="M60 237l4 -17q17 -77 86 -138q92 -82 234 -82q104 0 182 46t112 128q21 50 21 102q0 25 -5 50q-16 78 -72 136q-70 71 -244 135q-134 50 -175 91q-20 19 -23 56q-1 8 -1 16q0 28 11 54q39 95 173 95q112 0 173 -72q30 -37 38 -73l113 25l-4 17q-17 77 -86 138 q-92 82 -234 82q-101 0 -175 -44q-73 -43 -106 -123q-20 -48 -20 -98q0 -20 3 -40q11 -71 56 -116q59 -59 217 -117q149 -55 201 -108q31 -32 40 -76q3 -15 3 -30q0 -28 -11 -55q-21 -49 -70 -76q-48 -26 -117 -26q-108 0 -168 62q-30 33 -39 67l-4 16z" />
<glyph unicode="t" horiz-adv-x="550" d="M0 908h216v-908h120v908h216v119h-216v405h-120v-405h-216v-119z" />
<glyph unicode="u" horiz-adv-x="1046" d="M130 520q0 -279 72 -389q85 -131 320 -131q144 0 249 91v-91h119v1025h-119v-742q-25 -54 -70 -95q-75 -69 -179 -69q-87 0 -137 16q-54 18 -84 61q-52 77 -52 324v505h-119v-505z" />
<glyph unicode="v" horiz-adv-x="887" d="M0 1020l380 -1020h126l380 1020h-126l-317 -850l-317 850h-126z" />
<glyph unicode="w" horiz-adv-x="1299" d="M0 1026l308 -1026h123l219 798l219 -798h123l308 1026h-124l-243 -810l-223 810h-121l-222 -810l-243 810h-124z" />
<glyph unicode="x" horiz-adv-x="947" d="M10 0h149l313 418l314 -418h149l-388 517l381 508h-149l-307 -408l-307 408h-148l381 -508z" />
<glyph unicode="y" horiz-adv-x="913" d="M13 1027l380 -1020l-159 -427h126l540 1447h-127l-317 -850l-317 850h-126z" />
<glyph unicode="z" horiz-adv-x="917" d="M30 0h814v120h-657l683 788v122h-814v-120h657l-683 -788v-122z" />
<glyph unicode="{" horiz-adv-x="530" d="M80 561v113q90 0 128 44q61 68 26 346q-13 109 -13 154q0 119 71 176q74 58 176 34l-26 -110q-50 11 -80 -13q-29 -23 -29 -87q0 -38 13 -140q20 -159 16 -235q-7 -129 -69 -200q-13 -14 -27 -25q14 -12 27 -26q62 -70 69 -199q4 -77 -16 -236q-13 -102 -13 -140 q0 -64 29 -87q30 -23 80 -13l26 -110q-22 -5 -51 -5q-74 0 -125 40q-71 56 -71 175q0 45 13 154q35 278 -26 347q-38 43 -128 43z" />
<glyph unicode="|" horiz-adv-x="478" d="M170 -421h119v1889h-119v-1889z" />
<glyph unicode="}" horiz-adv-x="471" d="M35 -195l26 110q50 -11 81 13q28 23 28 87q0 38 -13 141q-19 159 -15 235q6 129 69 200q12 14 27 25q-15 12 -27 26q-63 70 -69 199q-4 77 15 236q13 102 13 140q0 64 -29 87q-34 27 -80 13l-26 110q102 24 176 -34q72 -57 72 -176q0 -45 -14 -154q-34 -278 26 -347 q39 -43 129 -43v-113q-90 0 -129 -44q-60 -68 -26 -347q14 -108 14 -154q0 -119 -72 -175q-50 -40 -124 -40q-29 0 -52 5z" />
<glyph unicode="~" horiz-adv-x="1085" d="M69 598q10 85 84 157q78 75 180 88q139 19 268 -110q78 -76 138 -71q59 8 101 72l187 -1q0 -79 -81 -154q-82 -78 -186 -90q-17 -3 -31 -3q-130 0 -252 122q-69 69 -120 62q-57 -8 -96 -77z" />
<glyph unicode="&#xa1;" horiz-adv-x="407" d="M150 -420h119v1033h-119v-1033zM150 843h119v174h-119v-174z" />
<glyph unicode="&#xa2;" horiz-adv-x="983" d="M72 481q0 -128 63 -237q62 -107 167 -170l-119 -359l104 -35l116 348q70 -22 143 -22q165 0 295 103q42 33 77 77l-78 79q-33 -45 -78 -78q-96 -71 -216 -71q-55 0 -108 17l229 691q52 -18 95 -50q45 -33 78 -77l78 78q-34 43 -77 77q-63 50 -139 77l105 317l-104 35 l-109 -329q-26 3 -48 3q-196 0 -335 -139t-139 -335zM182 481q0 150 107 257t257 107q-2 0 12 0l-220 -663q-156 109 -156 299z" />
<glyph unicode="&#xa3;" horiz-adv-x="952" d="M50 108l90 -74q33 27 81 44q96 34 178 -13q115 -65 222 -65q92 0 169 46q63 37 98 91l-100 65q-28 -43 -83 -66q-108 -47 -248 33q-108 61 -229 35q96 219 91 382h255v118h-272q-14 55 -55 146q-42 91 -49 139q-23 151 59 247q71 83 194 83q167 0 238 -131 q46 -85 46 -208h119q0 209 -110 333q-109 124 -293 124q-178 0 -284 -124q-118 -137 -86 -342q9 -64 58 -170q28 -62 39 -97h-123v-118h144q7 -184 -149 -478z" />
<glyph unicode="&#xa4;" horiz-adv-x="867" d="M76 186l85 -85l98 99q80 -54 176 -54q97 0 176 54l99 -99l85 85l-99 98q54 80 54 176t-54 176l99 99l-85 84l-99 -98q-80 54 -176 54t-176 -54l-98 98l-85 -84l99 -99q-54 -79 -54 -176q0 -96 54 -176zM241 460q0 48 21 89q29 56 85 85q42 21 88 21q47 0 89 -22 q56 -28 84 -84q22 -42 22 -89t-21 -88q-29 -56 -85 -85q-41 -21 -89 -21q-47 0 -88 21q-56 29 -85 85q-21 41 -21 88z" />
<glyph unicode="&#xa5;" horiz-adv-x="1209" d="M0 1431l533 -711h-385v-119h400v-90h-400v-119h400v-392h119v392h399v119h-399v90h399v119h-385l533 711h-149l-458 -611l-458 611h-149z" />
<glyph unicode="&#xa6;" horiz-adv-x="352" d="M94 0h141v746h-141v-746zM94 946h141v789h-141v-789z" />
<glyph unicode="&#xa7;" horiz-adv-x="1105" d="M73 -115q23 -105 117 -187q125 -110 318 -110q141 0 247 62t152 173q59 139 -3 279q73 57 108 142q42 99 21 204q-20 106 -96 183q-38 38 -84 69q-36 25 -82 48q-56 27 -175 71q-116 43 -167 70q-57 30 -92 65q-13 13 -22 31q-43 81 -3 177q63 151 271 151q166 0 258 -97 q48 -52 62 -107l116 26q-24 105 -118 187q-124 110 -318 110q-137 0 -237 -59q-99 -58 -144 -165q-60 -148 7 -277q-75 -57 -112 -145q-37 -90 -23 -184t73 -153q82 -82 303 -163q203 -75 278 -143q9 -6 19 -17q35 -36 53 -83q34 -88 -2 -175q-68 -161 -290 -161 q-167 0 -259 99q-47 51 -61 105zM191 625q-7 60 16 115q25 62 80 100q77 -62 268 -132q220 -81 297 -160q51 -52 65 -122t-14 -136q-22 -52 -64 -88l-7 7q-97 98 -341 188q-197 73 -260 135q-33 34 -40 93z" />
<glyph unicode="&#xa8;" horiz-adv-x="575" d="M42 1312h120v120h-120v-120zM402 1312h120v120h-120v-120z" />
<glyph unicode="&#xa9;" horiz-adv-x="1437" d="M0 719q0 297 211 507q210 211 507 211q298 0 508 -211q211 -210 211 -507q0 -298 -211 -508q-210 -211 -508 -211q-297 0 -507 211q-211 210 -211 508zM120 719q0 -248 175 -424q176 -175 423 -175q248 0 424 175q175 176 175 424q0 247 -175 423q-176 175 -424 175 q-247 0 -423 -175q-175 -176 -175 -423zM309 719q0 170 121 291t291 121q144 0 256 -89q38 -30 68 -68l8 -11l-88 -88l-11 15q-26 35 -62 61q-76 56 -171 56q-119 0 -204 -84q-84 -85 -84 -204q0 -120 84 -205q85 -84 204 -84q95 0 171 56q36 26 62 62l11 15l89 -89l-9 -11 q-31 -39 -68 -68q-112 -89 -256 -89q-170 0 -291 121t-121 292z" />
<glyph unicode="&#xaa;" horiz-adv-x="648" d="M28 921q0 93 69 152q99 85 328 85h23q-6 98 -37 128q-28 27 -111 27q-63 0 -107 -46q-22 -24 -32 -49l-8 -20l-21 7l-90 35l7 20q18 46 58 89q78 83 193 83q147 0 208 -76q52 -64 60 -207l1 -20v-387h-119v80q-95 -81 -215 -81q-93 0 -150 50t-57 130zM147 921 q0 -61 88 -61q80 0 143 57q52 48 67 122h-20q-101 0 -171 -19q-107 -29 -107 -99z" />
<glyph unicode="&#xab;" horiz-adv-x="1140" d="M80 455l481 -455l82 87l-439 415l441 440l-85 85l-480 -480v-92zM496 455l482 -455l82 87l-439 415l440 440l-85 85l-480 -480v-92z" />
<glyph unicode="&#xac;" horiz-adv-x="1014" d="M96 865h711v-391h119v511h-830v-120z" />
<glyph unicode="&#xad;" d="M68 429v118h343v-118h-343z" />
<glyph unicode="&#xae;" horiz-adv-x="1437" d="M0 716q0 296 210 506t506 210t506 -210t210 -506t-210 -506t-506 -210t-506 210t-210 506zM119 716q0 -247 175 -422t422 -175t422 175t175 422t-175 422t-422 175t-422 -175t-175 -422zM472 280v854h210q188 0 262 -74q61 -61 61 -164q0 -166 -145 -233l174 -383h-130 l-161 352q-33 -4 -67 -4h-86v-348h-118zM590 747h86q211 0 211 149q0 54 -26 80q-40 40 -180 40h-91v-269z" />
<glyph unicode="&#xaf;" horiz-adv-x="545" d="M35 1545h476v120h-476v-120z" />
<glyph unicode="&#xb0;" horiz-adv-x="853" d="M83 1087q0 -143 101 -244t244 -101t244 101t101 244t-101 244t-244 101t-244 -101t-101 -244zM203 1087q0 93 66 159t159 66t159 -66t66 -159t-66 -159t-159 -66t-159 66t-66 159z" />
<glyph unicode="&#xb1;" horiz-adv-x="793" d="M54 220h693v119h-693v-119zM54 746h287v-287h119v287h287v119h-287v287h-119v-287h-287v-119z" />
<glyph unicode="&#xb2;" horiz-adv-x="481" d="M20 1275l112 -44l11 35q17 51 96 51q69 0 91 -43q21 -39 -5 -79l-294 -350v-98h425v120h-249l212 253l3 5q70 100 15 205q-57 107 -198 107q-164 0 -209 -131z" />
<glyph unicode="&#xb3;" horiz-adv-x="501" d="M37 940l8 -33q18 -71 75 -116q58 -46 132 -46q88 0 150 63q63 62 63 150q0 94 -70 158q47 54 47 125q0 79 -56 135q-55 56 -134 56q-63 0 -113 -37q-50 -36 -69 -96l-9 -29l113 -48l10 38q14 52 68 52q29 0 49 -21q21 -21 21 -50t-21 -49q-20 -21 -49 -21h-34v-120h34 q38 0 65 -27t27 -66q0 -38 -27 -65t-65 -27q-32 0 -58 20q-25 20 -32 51l-8 34z" />
<glyph unicode="&#xb4;" horiz-adv-x="709" d="M215 1220l75 -93l315 246l-75 94z" />
<glyph unicode="&#xb5;" horiz-adv-x="1051" d="M158 -421h118v502q89 -76 271 -76q143 0 247 90v-90h118v1016h-118v-735q-25 -54 -70 -95q-75 -68 -177 -68q-167 0 -219 76t-52 322v500h-118v-1442z" />
<glyph unicode="&#xb6;" horiz-adv-x="1180" d="M0 940q0 -200 139 -343t338 -149v-860h119v1726h182v-1726h118v1726h285v118h-704q-199 -6 -338 -149t-139 -343z" />
<glyph unicode="&#xb7;" horiz-adv-x="508" d="M180 520h120v120h-120v-120z" />
<glyph unicode="&#xb8;" horiz-adv-x="397" d="M88 18v-137h60q23 0 39 -17q17 -16 17 -40q0 -27 -18 -39q-25 -18 -96 -17v-119q233 0 233 175q0 56 -33 102q-32 45 -83 63v29h-119z" />
<glyph unicode="&#xb9;" horiz-adv-x="426" d="M62 1316h104v-567h119v686h-223v-119z" />
<glyph unicode="&#xba;" horiz-adv-x="852" d="M83 1087q0 -143 101 -244t244 -101t244 101t101 244t-101 244t-244 101t-244 -101t-101 -244zM203 1087q0 93 66 159t159 66t159 -66t66 -159t-66 -159t-159 -66t-159 66t-66 159z" />
<glyph unicode="&#xbb;" horiz-adv-x="1160" d="M100 84l84 -84l478 477v92l-479 453l-82 -87l437 -413zM514 84l84 -84l478 477v92l-479 453l-82 -87l437 -413z" />
<glyph unicode="&#xbc;" horiz-adv-x="1551" d="M60 85l85 -85l1347 1344l-85 85zM191 1246h105v-571h120v691h-225v-120zM1012 190h271v-188h116v188h71v115h-71v368h-105l-282 -391v-92zM1172 305l111 155v-155h-111z" />
<glyph unicode="&#xbd;" horiz-adv-x="1546" d="M60 85l1350 1347l85 -85l-1350 -1347zM192 1248h104v-572h121v693h-225v-121zM1026 530l113 -44l11 34q16 51 96 51q68 0 91 -43q20 -38 -6 -78l-293 -350l-1 -98h426v120h-250l212 253l4 4q69 101 14 205q-56 108 -197 108q-165 0 -209 -131z" />
<glyph unicode="&#xbe;" horiz-adv-x="1507" d="M30 85l1343 1339l84 -85l-1342 -1339zM141 866l8 -33q18 -71 75 -115q57 -45 130 -45q88 0 150 62t62 149q0 93 -70 157q48 53 48 125q0 78 -56 133q-55 56 -134 56q-62 0 -111 -36q-50 -37 -69 -96l-9 -29l112 -48l10 38q14 51 67 51q29 0 50 -20q20 -21 20 -49 q0 -29 -20 -50q-21 -20 -50 -20h-34v-120h34q38 0 65 -27t27 -65t-27 -65t-65 -27q-31 0 -57 20q-25 20 -32 51l-8 34zM979 189h269v-187h116v187h71v115h-71v367h-105l-280 -390v-92zM1138 304l110 154v-154h-110z" />
<glyph unicode="&#xbf;" horiz-adv-x="996" d="M101 -14q4 81 62 163q34 49 123 138q87 87 118 132q53 74 53 145v165h119v-165q0 -103 -67 -202q-39 -59 -139 -159q-146 -146 -151 -223q-7 -139 50 -198q70 -74 269 -74q170 0 245 176l110 -44q-46 -107 -125 -172q-97 -79 -230 -79q-250 0 -355 111q-92 97 -82 286z M457 897v119h118v-119h-118z" />
<glyph unicode="&#xc0;" horiz-adv-x="1219" d="M0 2h127l187 490h591l187 -492l127 1l-544 1429h-132zM359 611l250 657l250 -657h-500zM416 1655l313 -245l75 93l-314 245z" />
<glyph unicode="&#xc1;" horiz-adv-x="1229" d="M0 2h128l187 492h593l188 -494l128 1l-546 1434h-133zM361 613l251 659l250 -659h-501zM417 1509l75 -94l314 246l-74 94z" />
<glyph unicode="&#xc2;" horiz-adv-x="1229" d="M0 2h128l187 492h593l188 -494l128 1l-546 1434h-133zM299 1520l74 -93l239 187l239 -187l75 93l-308 241l-4 6l-2 -2l-1 2l-5 -6zM361 614l251 659l251 -659h-502z" />
<glyph unicode="&#xc3;" horiz-adv-x="1234" d="M0 2h128l187 492h593l188 -494l128 1l-546 1434h-133zM286 1544q7 58 57 107q53 51 122 61q95 13 184 -76q52 -52 94 -47q40 4 69 48l127 -1q0 -53 -55 -105q-57 -53 -128 -61q-11 -1 -21 -1q-88 0 -171 83q-47 46 -82 41q-39 -5 -66 -51zM361 614l251 659l251 -659h-502 z" />
<glyph unicode="&#xc4;" horiz-adv-x="1234" d="M0 2h128l187 492h593l188 -494l128 1l-546 1434h-133zM361 614l251 659l251 -659h-502zM371 1536h121v121h-121v-121zM733 1536h120v121h-120v-121z" />
<glyph unicode="&#xc5;" horiz-adv-x="1239" d="M0 2h129l189 496h597l190 -498l129 1l-548 1438q92 44 92 144q0 67 -47 114q-48 47 -114 47t-114 -47q-47 -47 -47 -114q0 -100 91 -144zM364 618l253 665l252 -665h-505zM577 1583q0 17 12 29q11 12 28 12t28 -12q12 -12 12 -29q0 -16 -12 -28q-11 -12 -28 -12t-28 12 q-12 12 -12 28z" />
<glyph unicode="&#xc6;" horiz-adv-x="1854" d="M0 64l99 -64l364 568h421v-556h877v118h-759v533h592v118h-592v533h759v118h-877v-8l-8 5zM539 686l345 537v-537h-345z" />
<glyph unicode="&#xc7;" horiz-adv-x="1452" d="M100 714q0 -275 184 -480q182 -203 451 -234v-139h60q24 0 40 -17q17 -16 17 -40q0 -27 -18 -39q-25 -18 -97 -17v-120q235 0 235 176q0 57 -33 103q-32 45 -84 64v25q245 13 431 173q46 39 84 85l-85 86q-37 -47 -84 -86q-166 -139 -383 -139q-247 0 -423 176 q-175 175 -175 423q0 247 175 423q176 175 423 175q210 0 374 -132q47 -37 86 -84l85 85q-39 46 -86 85q-200 166 -459 166q-297 0 -507 -211q-211 -210 -211 -507z" />
<glyph unicode="&#xc8;" horiz-adv-x="1151" d="M150 0h885v119h-766v538h597v119h-597v537h766v120h-306l57 72l-313 245l-74 -93l286 -224h-535v-1433z" />
<glyph unicode="&#xc9;" horiz-adv-x="1151" d="M144 0h887v119h-768v539h599v120h-599v538h768v119h-536l287 225l-75 93l-314 -245l57 -73h-306v-1435z" />
<glyph unicode="&#xca;" horiz-adv-x="1151" d="M139 0h887v119h-768v539h599v120h-599v539h768v119h-197l66 83l-307 241l-4 5l-2 -1l-1 1l-4 -5l-307 -241l66 -83h-197v-1436zM357 1436l225 177l226 -177h-451z" />
<glyph unicode="&#xcb;" horiz-adv-x="1151" d="M139 0h887v119h-768v540h599v119h-599v539h768v119h-887v-1436zM339 1536h121v120h-121v-120zM700 1536h121v120h-121v-120z" />
<glyph unicode="&#xcc;" horiz-adv-x="486" d="M60 1671l317 -248l75 95l-317 247zM196 0h120v1442h-120v-1442z" />
<glyph unicode="&#xcd;" horiz-adv-x="506" d="M55 1516l75 -94l316 248l-75 94zM191 0h120v1441h-120v-1441z" />
<glyph unicode="&#xce;" horiz-adv-x="560" d="M-50 1522l75 -93l239 187l239 -187l75 93l-308 241l-5 6l-1 -1l-1 1l-5 -6zM204 0h120v1436h-120v-1436z" />
<glyph unicode="&#xcf;" horiz-adv-x="481" d="M0 1533h120v120h-120v-120zM181 0h119v1431h-119v-1431zM361 1533h120v120h-120v-120z" />
<glyph unicode="&#xd0;" horiz-adv-x="1427" d="M70 655h176v-655h419q172 0 347 93q342 181 342 622t-342 621q-175 93 -347 93h-419v-655h-176v-119zM365 119v536h435v119h-435v536h300q151 -1 294 -78q276 -150 276 -517t-276 -517q-143 -78 -294 -79h-300z" />
<glyph unicode="&#xd1;" horiz-adv-x="1264" d="M160 0h120v1226l766 -1226h130v1435h-119v-1226l-767 1226h-130v-1435zM342 1559q7 58 57 107q53 51 122 61q95 13 183 -76q53 -52 94 -48q40 5 69 49l127 -1q0 -54 -55 -105q-56 -53 -127 -61q-11 -2 -21 -2q-88 0 -171 83q-47 47 -82 42q-39 -5 -66 -52z" />
<glyph unicode="&#xd2;" horiz-adv-x="1546" d="M44 719q0 297 211 508t508 211t508 -211t211 -508t-211 -508t-508 -211t-508 211t-211 508zM164 719q0 -248 175 -423q176 -176 424 -176t423 176q176 175 176 423t-176 423q-175 176 -423 176t-424 -176q-175 -175 -175 -423zM568 1685l315 -247l75 94l-316 247z" />
<glyph unicode="&#xd3;" horiz-adv-x="1551" d="M60 716q0 296 210 506t506 210t506 -210t210 -506t-210 -506t-506 -210t-506 210t-210 506zM179 716q0 -247 175 -422t422 -175t422 175t175 422t-175 422t-422 175t-422 -175t-175 -422zM582 1526l74 -93l314 246l-74 93z" />
<glyph unicode="&#xd4;" horiz-adv-x="1561" d="M59 716q0 296 210 506t506 210t506 -210t210 -506t-210 -506t-506 -210t-506 210t-210 506zM178 716q0 -247 175 -422t422 -175t422 175t175 422t-175 422t-422 175t-422 -175t-175 -422zM462 1537l74 -93l239 186l238 -186l75 93l-307 240l-5 6l-1 -1l-1 1l-5 -6z" />
<glyph unicode="&#xd5;" horiz-adv-x="1576" d="M59 719q0 297 211 508q210 210 508 210q297 0 507 -210q211 -211 211 -508q0 -298 -211 -508q-210 -211 -507 -211q-298 0 -508 211q-211 210 -211 508zM179 719q0 -248 175 -424q176 -175 424 -175q247 0 423 175q175 176 175 424q0 247 -175 423q-176 175 -423 175 q-248 0 -424 -175q-175 -176 -175 -423zM451 1567q6 58 57 107q53 51 123 61q94 13 183 -76q52 -52 94 -48q40 5 69 49l128 -1q0 -54 -55 -105q-57 -54 -128 -62q-11 -1 -21 -1q-89 0 -172 83q-46 47 -82 42q-39 -5 -65 -52z" />
<glyph unicode="&#xd6;" horiz-adv-x="1576" d="M70 718q0 297 211 508q210 211 507 211t508 -211t211 -508t-211 -507q-211 -211 -508 -211t-507 211q-211 210 -211 507zM190 718q0 -247 175 -423q176 -175 423 -175q248 0 423 175q176 176 176 423q0 248 -176 423q-175 176 -423 176q-247 0 -423 -176 q-175 -175 -175 -423zM547 1558h121v121h-121v-121zM909 1558h120v121h-120v-121z" />
<glyph unicode="&#xd7;" horiz-adv-x="877" d="M71 551l84 -85l274 274l274 -274l84 85l-273 273l273 274l-84 85l-274 -274l-274 274l-84 -85l274 -274z" />
<glyph unicode="&#xd8;" horiz-adv-x="1586" d="M70 716q0 -261 169 -461l-164 -163l84 -84l164 163q200 -171 463 -171q296 0 506 210t210 506q0 262 -170 462l165 164l-84 84l-165 -164q-200 170 -462 170q-296 0 -506 -210t-210 -506zM189 716q0 247 175 422t422 175q213 0 377 -135l-840 -838q-134 164 -134 376z M407 255l841 838q135 -164 135 -377q0 -247 -175 -422t-422 -175q-214 0 -379 136z" />
<glyph unicode="&#xd9;" horiz-adv-x="1244" d="M65 495v940h120v-943q-2 -38 11 -91q24 -104 89 -171q108 -111 318 -111q211 0 318 112q106 110 100 261v2v941h119v-940q2 -58 -15 -128q-33 -130 -118 -219q-142 -148 -404 -148t-405 148q-138 144 -133 347zM408 1681l315 -246l74 93l-314 246z" />
<glyph unicode="&#xda;" horiz-adv-x="1234" d="M65 495v940h120v-943q-2 -38 11 -91q24 -104 89 -171q108 -111 318 -111q211 0 318 112q106 110 100 261v2v941h119v-940q2 -58 -15 -128q-33 -130 -118 -219q-142 -148 -404 -148t-405 148q-138 144 -133 347zM408 1528l75 -93l314 246l-74 93z" />
<glyph unicode="&#xdb;" horiz-adv-x="1234" d="M60 495v940h120v-943q-5 -153 100 -262q108 -110 318 -110q211 0 318 111q106 110 100 261v943h120v-940q5 -203 -134 -347q-142 -148 -404 -148t-405 148q-138 144 -133 347zM285 1540l74 -94l239 187l239 -187l74 94l-307 240l-5 6l-1 -1l-1 1l-5 -6z" />
<glyph unicode="&#xdc;" horiz-adv-x="1239" d="M69 497v943h120v-946q-1 -38 11 -92q25 -104 90 -171q108 -111 319 -111t319 112q107 110 101 262v946h119v-943q2 -58 -16 -129q-32 -130 -117 -219q-143 -149 -406 -149t-406 149q-139 144 -134 348zM367 1561h121v121h-121v-121zM730 1561h120v121h-120v-121z" />
<glyph unicode="&#xdd;" horiz-adv-x="1206" d="M0 1430l547 -730v-700h119v701l547 729h-149l-457 -611l-459 611h-148zM413 1524l74 -93l313 245l-74 93z" />
<glyph unicode="&#xde;" horiz-adv-x="1266" d="M146 33v1653h144v-316h235q178 0 276 -18q171 -32 266 -127q114 -114 114 -311q0 -248 -170 -384t-481 -136h-240v-361h-144zM290 537h240q214 0 341 72q167 94 167 305q0 137 -73 210q-67 67 -208 89q-80 13 -232 13h-235v-689z" />
<glyph unicode="&#xdf;" horiz-adv-x="1229" d="M151 0v1121q-5 93 12 195q30 189 125 291q99 106 254 106q167 0 287 -62q119 -63 162 -173q38 -96 8 -198q-31 -103 -122 -188q-112 -104 -107 -187q3 -57 54 -95q7 -6 39 -25q139 -84 205 -163q119 -143 73 -320q-38 -145 -154 -231q-117 -85 -252 -68q-129 17 -213 125 q-99 129 -99 352h142q0 -146 50 -235t138 -100q76 -10 147 41q77 54 103 152q27 106 -43 192q-48 59 -170 133q-38 23 -52 33q-104 78 -111 201q-8 150 153 299q124 116 79 229q-27 69 -111 107t-206 38q-93 0 -149 -60q-62 -66 -87 -202q-18 -96 -13 -180l1 -5v-1123h-143z " />
<glyph unicode="&#xe0;" horiz-adv-x="957" d="M70 250q0 -112 80 -181q81 -69 211 -69q187 0 330 130q24 22 46 48v-177h118v503v20v1v53h-1q-8 235 -84 332q-87 112 -306 112q-166 0 -279 -121q-58 -62 -83 -128l111 -42q16 43 57 87q79 85 194 85q154 0 209 -61q55 -64 62 -254q-37 2 -74 2q-286 0 -438 -88 q-153 -88 -153 -252zM189 250q0 127 170 183q118 38 302 38q37 0 73 -2q-17 -155 -123 -252q-109 -98 -250 -98q-71 0 -117 29q-55 35 -55 102zM270 1359l312 -244l73 93l-312 244z" />
<glyph unicode="&#xe1;" horiz-adv-x="981" d="M80 253q0 -114 81 -183q81 -70 213 -70q189 0 333 131q24 22 46 49v-179h120v508v20v1v54h-1q-8 237 -85 336q-88 112 -309 112q-168 0 -282 -122q-59 -63 -84 -129l112 -43q16 44 58 88q80 86 196 86q156 0 211 -62q56 -64 63 -256q-38 2 -74 2q-289 0 -444 -89 q-154 -88 -154 -254zM200 253q0 128 172 184q119 39 306 39q36 0 72 -2q-16 -157 -124 -254q-109 -100 -252 -100q-72 0 -119 29q-55 36 -55 104zM330 1220l74 -93l315 246l-74 94z" />
<glyph unicode="&#xe2;" horiz-adv-x="976" d="M80 251q0 -113 81 -182q80 -69 211 -69q187 0 330 130q25 22 46 48v-177h119v504v20v54l-1 1q-8 235 -84 333q-88 111 -307 111q-167 0 -280 -121q-58 -62 -83 -128l111 -42q16 43 57 87q80 86 195 86q155 0 209 -62q56 -64 63 -254q-37 1 -74 1q-287 0 -440 -88 t-153 -252zM199 251q0 127 171 183q118 38 303 38q36 0 72 -1q-16 -156 -123 -253q-109 -99 -250 -99q-71 0 -118 29q-55 35 -55 103zM215 1222l74 -93l237 186l238 -186l73 93l-305 239l-5 6l-1 -1l-1 1l-5 -6z" />
<glyph unicode="&#xe3;" horiz-adv-x="976" d="M80 251q0 -112 81 -182q80 -69 212 -69q187 0 331 130q24 22 46 49v-178h119v505v20v55h-1q-8 236 -85 334q-87 112 -307 112q-167 0 -280 -122q-59 -62 -84 -129l111 -42q17 44 57 88q80 86 196 86q155 0 209 -62q57 -64 63 -255q-37 1 -74 1q-287 0 -441 -88 q-153 -88 -153 -253zM149 1263q7 58 57 107q53 51 122 60q94 13 182 -75q52 -52 94 -47q40 4 68 48l127 -1q0 -53 -55 -105q-56 -52 -127 -61q-10 -1 -21 -1q-87 0 -170 83q-47 46 -82 41q-39 -5 -65 -51zM199 251q0 128 171 184q119 38 304 38q37 0 73 -1 q-17 -157 -124 -254q-109 -99 -250 -99q-72 0 -119 30q-55 35 -55 102z" />
<glyph unicode="&#xe4;" horiz-adv-x="1016" d="M90 251q0 -113 81 -182q80 -69 212 -69q187 0 330 130q24 22 46 48v-177h119v579h-1q-8 236 -84 334q-88 112 -307 112q-167 0 -281 -122q-58 -62 -83 -128l111 -42q16 43 57 87q80 86 196 86q155 0 209 -62q56 -64 63 -255q-38 2 -74 2q-287 0 -441 -88 q-153 -88 -153 -253zM209 251q0 128 171 183q119 39 304 39q36 0 72 -2q-16 -156 -123 -253q-109 -99 -250 -99q-72 0 -119 29q-55 36 -55 103zM244 1185v120h120v-120h-120zM604 1185v120h120v-120h-120z" />
<glyph unicode="&#xe5;" horiz-adv-x="991" d="M80 251q0 -113 81 -182q80 -69 211 -69q188 0 331 130q24 22 46 48v-177h119v504v21v54h-2q-7 236 -84 333q-87 112 -307 112q-167 0 -280 -121q-58 -63 -83 -129l111 -42q16 43 57 87q80 86 195 86q155 0 210 -61q56 -64 62 -255q-37 2 -74 2q-287 0 -440 -88t-153 -253 zM199 251q0 128 171 183q118 39 303 39q37 0 73 -2q-17 -156 -123 -253q-109 -99 -251 -99q-71 0 -118 29q-55 35 -55 103zM318 1226q0 64 46 110q45 46 110 46q64 0 110 -46t46 -110q0 -65 -46 -111q-46 -45 -110 -45q-65 0 -110 45q-46 46 -46 111zM437 1226q0 -16 11 -27 q10 -10 26 -10q15 0 26 10q11 11 11 27q0 15 -11 26t-26 11q-16 0 -26 -11q-11 -11 -11 -26z" />
<glyph unicode="&#xe6;" horiz-adv-x="1890" d="M100 251q0 -112 81 -182q80 -69 212 -69q187 0 330 130q66 60 112 127q67 -117 183 -186q120 -71 259 -71q235 0 388 179l-99 68q-116 -128 -289 -128q-148 0 -259 99q-111 98 -128 244h895q2 24 2 48q0 37 -5 71q-26 186 -169 312q-144 126 -336 126q-127 0 -240 -60 q-108 -58 -178 -159q-34 116 -116 169q-87 57 -247 57q-167 0 -281 -121q-58 -63 -83 -129l111 -42q17 43 57 87q80 86 196 86q155 0 209 -62q56 -63 63 -255q-37 2 -74 2q-287 0 -441 -88q-153 -88 -153 -253zM219 251q0 128 171 184q119 38 304 38q36 0 72 -2 q-16 -156 -123 -253q-109 -99 -250 -99q-72 0 -119 30q-55 35 -55 102zM893 581q25 137 133 228q109 91 251 91q143 0 252 -91q107 -91 132 -228h-768z" />
<glyph unicode="&#xe7;" horiz-adv-x="1026" d="M80 511q0 -186 121 -329q119 -141 300 -173v-137h59q23 0 40 -16q16 -16 16 -39q0 -27 -17 -40q-26 -17 -96 -16v-118q231 0 231 174q0 55 -32 101q-32 44 -83 62v22q162 9 288 109q46 36 84 84l-84 84q-35 -48 -84 -84q-103 -76 -232 -76q-163 0 -278 115t-115 277 q0 163 115 278t278 115q128 0 232 -77q48 -35 84 -83l84 84q-37 47 -84 83q-139 111 -316 111q-211 0 -361 -150q-150 -149 -150 -361z" />
<glyph unicode="&#xe8;" horiz-adv-x="1180" d="M80 516q0 -214 151 -365t365 -151q237 0 392 181l-100 69q-118 -130 -292 -130q-151 0 -263 101q-112 99 -130 246h906q2 25 2 49q0 37 -5 71q-26 189 -171 316q-146 128 -339 128q-214 0 -365 -151t-151 -364zM207 587q26 139 134 231q111 93 255 93t254 -93 q109 -92 134 -231h-777zM400 1408l317 -248l75 94l-317 248z" />
<glyph unicode="&#xe9;" horiz-adv-x="1185" d="M80 512q0 -212 150 -362t362 -150q236 0 390 180l-99 68q-117 -128 -291 -128q-149 0 -261 99q-110 99 -128 245h899q3 25 3 48q0 38 -6 72q-26 187 -169 313q-145 128 -338 128q-212 0 -362 -151q-150 -150 -150 -362zM206 584q26 138 134 229q109 92 252 92t253 -92 q108 -91 133 -229h-772zM399 1246l315 246l75 -94l-315 -246z" />
<glyph unicode="&#xea;" horiz-adv-x="1165" d="M80 510q0 -211 150 -360q149 -150 360 -150q236 0 389 179l-99 68q-116 -128 -290 -128q-148 0 -260 99q-110 99 -128 244h897q2 25 2 48q0 38 -5 72q-26 187 -169 312q-145 127 -337 127q-211 0 -360 -150q-150 -149 -150 -361zM206 582q25 137 133 228q109 92 251 92 q143 0 252 -92q108 -91 133 -228h-769zM278 1241l74 -93l239 187l238 -187l74 93l-307 240l-4 6l-1 -1l-2 1l-4 -6z" />
<glyph unicode="&#xeb;" horiz-adv-x="1185" d="M70 513q0 -212 150 -363q151 -150 363 -150q236 0 389 180l-99 68q-117 -128 -290 -128q-150 0 -262 99q-110 99 -128 245h900q2 25 2 49q0 37 -5 71q-26 188 -170 314q-145 127 -337 127q-212 0 -363 -150q-150 -150 -150 -362zM196 584q26 138 134 229q109 93 253 93 q143 0 252 -93q109 -91 134 -229h-773zM342 1202v121h120v-121h-120zM703 1202v121h121v-121h-121z" />
<glyph unicode="&#xec;" horiz-adv-x="342" d="M-30 1385l315 -246l75 93l-315 247zM105 0h120v1031h-120v-1031z" />
<glyph unicode="&#xed;" horiz-adv-x="367" d="M20 1255l75 -94l315 247l-75 94zM100 0h120v1032h-120v-1032z" />
<glyph unicode="&#xee;" horiz-adv-x="466" d="M-90 1247l75 -94l240 188l240 -188l74 94l-308 242l-5 5l-1 -1l-2 1l-4 -5zM165 0h120v1034h-120v-1034z" />
<glyph unicode="&#xef;" horiz-adv-x="387" d="M-50 1202h120v120h-120v-120zM131 0h119v1029h-119v-1029zM311 1202h120v120h-120v-120z" />
<glyph unicode="&#xf0;" horiz-adv-x="1191" d="M80 512q0 -212 150 -362t362 -150t362 150t150 362q0 144 -74 266l-1 1q-15 25 -35 50l-286 409l232 101l-48 111l-256 -110l-79 113h-148l114 -162l-251 -109l48 -111l274 118l126 -181q-62 16 -128 16q-212 0 -362 -150t-150 -362zM202 512q0 162 114 276 q115 115 276 115q187 0 305 -147l27 -39q59 -94 59 -205q0 -161 -115 -276q-114 -114 -276 -114q-161 0 -276 114q-114 115 -114 276z" />
<glyph unicode="&#xf1;" horiz-adv-x="1036" d="M140 0h119v739q25 54 70 95q75 69 177 69q155 0 212 -77q61 -83 61 -323v-503h119v503q0 274 -78 388q-87 131 -314 131q-143 0 -247 -91v90h-119v-1021zM195 1252q7 58 57 106q52 51 121 61q94 13 182 -75q52 -52 93 -47q40 4 69 47h125q0 -53 -54 -105 q-56 -52 -126 -60q-11 -1 -21 -1q-88 0 -170 82q-46 46 -81 41q-39 -5 -65 -51z" />
<glyph unicode="&#xf2;" horiz-adv-x="1170" d="M80 513q0 213 151 363q150 151 362 151q213 0 363 -151q151 -150 151 -363q0 -212 -151 -362q-150 -151 -363 -151q-212 0 -362 151q-151 150 -151 362zM199 513q0 -163 116 -278q115 -116 278 -116t279 116q115 115 115 278t-115 279q-116 115 -279 115t-278 -115 q-116 -116 -116 -279zM399 1379l314 -246l74 94l-313 245z" />
<glyph unicode="&#xf3;" horiz-adv-x="1165" d="M70 513q0 213 151 363q150 151 362 151q213 0 363 -151q151 -150 151 -363q0 -212 -151 -362q-150 -151 -363 -151q-212 0 -362 151q-151 150 -151 362zM189 513q0 -163 116 -278q115 -116 278 -116t279 116q115 115 115 278t-115 279q-116 115 -279 115t-278 -115 q-116 -116 -116 -279zM389 1227l75 -94l313 246l-74 93z" />
<glyph unicode="&#xf4;" horiz-adv-x="1170" d="M70 513q0 212 150 362q151 151 363 151t362 -151q151 -150 151 -362t-151 -363q-150 -150 -362 -150t-363 150q-150 151 -150 363zM189 513q0 -163 116 -278q115 -116 278 -116t278 116q116 115 116 278t-116 278q-115 116 -278 116t-278 -116q-116 -115 -116 -278z M271 1237l74 -93l238 186l238 -186l74 93l-306 239l-5 6l-1 -1l-1 1l-5 -6z" />
<glyph unicode="&#xf5;" horiz-adv-x="1170" d="M80 514q0 212 151 363q150 151 363 151q212 0 363 -151t151 -363q0 -213 -151 -363q-151 -151 -363 -151q-213 0 -363 151q-151 150 -151 363zM199 514q0 -163 116 -279t279 -116t279 116t116 279t-116 279t-279 116t-279 -116t-116 -279zM268 1263q7 58 58 107 q52 51 122 60q94 13 182 -75q52 -52 94 -47q40 4 69 48l126 -1q0 -53 -54 -105q-57 -53 -127 -61q-11 -1 -22 -1q-87 0 -170 83q-47 46 -82 41q-39 -5 -65 -51z" />
<glyph unicode="&#xf6;" horiz-adv-x="1150" d="M80 515q0 213 151 365q151 151 364 151t365 -151q151 -152 151 -365t-151 -364q-152 -151 -365 -151t-364 151t-151 364zM80 515q0 213 151 365q151 151 364 151t365 -151q151 -152 151 -365t-151 -364q-152 -151 -365 -151t-364 151t-151 364zM80 515q0 213 151 365 q151 151 364 151t365 -151q151 -152 151 -365t-151 -364q-152 -151 -365 -151t-364 151t-151 364zM80 515q0 213 151 365q151 151 364 151t365 -151q151 -152 151 -365t-151 -364q-152 -151 -365 -151t-364 151t-151 364zM200 515q0 -163 116 -279t279 -116q164 0 280 116 t116 279q0 164 -116 280t-280 116q-163 0 -279 -116t-116 -280zM200 515q0 -163 116 -279t279 -116q164 0 280 116t116 279q0 164 -116 280t-280 116q-163 0 -279 -116t-116 -280zM200 515q0 -163 116 -279t279 -116q164 0 280 116t116 279q0 164 -116 280t-280 116 q-163 0 -279 -116t-116 -280zM200 515q0 -163 116 -279t279 -116q164 0 280 116t116 279q0 164 -116 280t-280 116q-163 0 -279 -116t-116 -280zM354 1188v120h121v-120h-121zM716 1188v120h120v-120h-120z" />
<glyph unicode="&#xf7;" horiz-adv-x="869" d="M90 746h693v119h-693v-119zM377 459v120h120v-120h-120zM377 1032v120h120v-120h-120z" />
<glyph unicode="&#xf8;" horiz-adv-x="1220" d="M120 83l83 -83l116 115q139 -110 316 -110q210 0 358 149q149 149 149 359q0 176 -109 314l116 116l-83 83l-116 -115q-139 110 -315 110q-210 0 -359 -149t-149 -359q0 -176 109 -314zM245 513q0 161 114 276q114 114 276 114q127 0 231 -77l-546 -543q-75 103 -75 230z M404 200l545 543q75 -103 75 -230q0 -161 -114 -276q-114 -114 -275 -114q-128 0 -231 77z" />
<glyph unicode="&#xf9;" horiz-adv-x="1046" d="M140 522q0 -280 72 -391q85 -131 322 -131q143 0 249 91v-91h119v1028h-119v-744q-26 -54 -71 -95q-75 -70 -178 -70q-170 0 -222 77q-53 77 -53 326v506h-119v-506zM327 1404l314 -246l74 93l-314 246z" />
<glyph unicode="&#xfa;" horiz-adv-x="1036" d="M140 520q0 -279 72 -389q85 -131 320 -131q144 0 249 91v-91h119v1024h-119v-741q-26 -54 -70 -95q-76 -69 -179 -69q-168 0 -221 77q-52 77 -52 324v504h-119v-504zM326 1247l74 -93l313 245l-74 93z" />
<glyph unicode="&#xfb;" horiz-adv-x="1059" d="M150 520q0 -279 72 -389q85 -131 320 -131q144 0 249 91v-91h119v1024h-119v-741q-26 -54 -70 -95q-76 -69 -179 -69q-168 0 -221 77q-52 77 -52 324v504h-119v-504zM218 1247l74 -93l238 186l237 -186l74 93l-305 239l-5 6l-1 -1l-2 1l-4 -6z" />
<glyph unicode="&#xfc;" horiz-adv-x="1041" d="M150 520q0 -279 72 -389q85 -131 320 -131q144 0 249 91v-91h119v1024h-119v-741q-26 -54 -70 -95q-76 -69 -179 -69q-168 0 -221 77q-52 76 -52 324v504h-119v-504zM290 1203v120h120v-120h-120zM650 1203v120h119v-120h-119z" />
<glyph unicode="&#xfd;" horiz-adv-x="920" d="M0 1034l382 -1025l-160 -429h127l542 1454h-128l-318 -854l-318 854h-127zM252 1255l74 -93l313 245l-74 93z" />
<glyph unicode="&#xfe;" horiz-adv-x="1223" d="M130 -393h118v592q154 -184 392 -184q211 0 360 149q150 150 150 361t-150 360q-149 150 -360 150q-238 0 -392 -184v584h-118v-1828zM248 525q0 162 115 277q115 114 277 114t277 -114q114 -115 114 -277t-114 -277q-115 -115 -277 -115t-277 115t-115 277z" />
<glyph unicode="&#xff;" horiz-adv-x="893" d="M0 1030l381 -1022l-160 -428h127l540 1450h-127l-317 -852l-318 852h-126zM205 1207h120v119h-120v-119zM564 1207h119v119h-119v-119z" />
<glyph unicode="&#x2c6;" horiz-adv-x="681" d="M24 1246l75 -93l239 187l239 -187l74 93l-307 241l-5 6l-1 -1l-2 1l-4 -6z" />
<glyph unicode="&#x2dc;" horiz-adv-x="653" d="M-1 1264q7 58 57 107q53 51 122 60q94 13 182 -75q52 -52 94 -47q40 4 69 48l126 -1q0 -53 -54 -105q-57 -53 -127 -61q-11 -1 -22 -1q-87 0 -170 83q-46 46 -82 41q-39 -5 -65 -51z" />
<glyph unicode="&#x2000;" horiz-adv-x="893" />
<glyph unicode="&#x2001;" horiz-adv-x="1786" />
<glyph unicode="&#x2002;" horiz-adv-x="893" />
<glyph unicode="&#x2003;" horiz-adv-x="1786" />
<glyph unicode="&#x2004;" horiz-adv-x="595" />
<glyph unicode="&#x2005;" horiz-adv-x="446" />
<glyph unicode="&#x2006;" horiz-adv-x="297" />
<glyph unicode="&#x2007;" horiz-adv-x="297" />
<glyph unicode="&#x2008;" horiz-adv-x="223" />
<glyph unicode="&#x2009;" horiz-adv-x="357" />
<glyph unicode="&#x200a;" horiz-adv-x="99" />
<glyph unicode="&#x2010;" d="M68 429v118h343v-118h-343z" />
<glyph unicode="&#x2011;" d="M68 429v118h343v-118h-343z" />
<glyph unicode="&#x2012;" d="M68 429v118h343v-118h-343z" />
<glyph unicode="&#x2013;" horiz-adv-x="700" d="M3 502h700v85h-700v-85z" />
<glyph unicode="&#x2014;" horiz-adv-x="1800" d="M3 502h1790v85h-1790v-85z" />
<glyph unicode="&#x2018;" horiz-adv-x="453" d="M168 1315v405h119v-405h-119z" />
<glyph unicode="&#x2019;" horiz-adv-x="441" d="M168 1315v405h119v-405h-119z" />
<glyph unicode="&#x201a;" horiz-adv-x="450" d="M61 -244h69l180 336h-123z" />
<glyph unicode="&#x201c;" horiz-adv-x="567" d="M90 993v447h120v-447h-120zM343 993v447h120v-447h-120z" />
<glyph unicode="&#x201d;" horiz-adv-x="560" d="M90 993v447h120v-447h-120zM343 993v447h120v-447h-120z" />
<glyph unicode="&#x201e;" horiz-adv-x="727" d="M61 -244h69l180 336h-123zM314 -244h69l180 336h-123z" />
<glyph unicode="&#x2022;" horiz-adv-x="642" d="M149 677q0 68 48 116t116 48t117 -48q48 -48 48 -116t-48 -116q-49 -48 -117 -48t-116 48t-48 116z" />
<glyph unicode="&#x2026;" horiz-adv-x="1204" d="M157 7v120h119v-120h-119zM515 7v120h120v-120h-120zM874 7h119v120h-119v-120z" />
<glyph unicode="&#x202f;" horiz-adv-x="357" />
<glyph unicode="&#x2039;" horiz-adv-x="808" d="M120 454l481 -454l82 87l-439 415l440 439l-84 85l-480 -479v-93z" />
<glyph unicode="&#x203a;" horiz-adv-x="765" d="M100 85l84 -85l480 479v93l-481 454l-82 -87l439 -415z" />
<glyph unicode="&#x205f;" horiz-adv-x="446" />
<glyph unicode="&#x20ac;" horiz-adv-x="1431" d="M-60 522h206q64 -228 253 -374q193 -148 435 -148q265 0 466 173q45 39 84 85l-85 85q-37 -47 -84 -85q-165 -138 -381 -138q-193 0 -349 113q-153 111 -214 289h645l20 120h-692q-5 38 -5 73t5 73h715l20 120h-708q61 178 214 289q156 114 349 114q210 0 372 -132 q47 -36 86 -83l85 84q-39 46 -86 85q-199 165 -457 165q-242 0 -435 -148q-189 -146 -253 -374h-143l-20 -120h140q-3 -36 -3 -73t3 -73h-163z" />
<glyph unicode="&#x2122;" horiz-adv-x="1639" d="M237 1311h184v-567h119v567h190v119h-493v-119zM785 748h115l44 425l110 -256h99l110 256l44 -425h116l-71 683h-105l-143 -336l-144 336h-105z" />
<glyph unicode="&#x25fc;" horiz-adv-x="1025" d="M0 0v1025h1025v-1025h-1025z" />
</font>
</defs>
</svg>
